# xmcd
#
# Track frame offsets:
#	150
#	29931
#	54385
#	69915
#	106463
#	114841
#	127878
#	142602
#	179350
#
# Disc length: 2686 seconds
#
# Revision: 1
# Processed by: cddbd v1.5.2PL0 Copyright (c) Steve Scherf et al.
# Submitted via: audiograbber 1.83.01
#
DISCID=730a7c09
DTITLE=Heliocentric Counterblast - A Tribute To Sun Ra
DYEAR=2012
DGENRE=Jazz
TTITLE0=Ancient Aiethopia
TTITLE1=A Call For Demons
TTITLE2=Watusa
TTITLE3=Do You Voodoo
TTITLE4=Hypertorus
TTITLE5=Images
TTITLE6=Future
TTITLE7=Galactic Voyage
TTITLE8=S'Wonderful
EXTD=YEAR: 2012
EXTT0=
EXTT1=
EXTT2=
EXTT3=
EXTT4=
EXTT5=
EXTT6=
EXTT7=
EXTT8=
PLAYORDER=
